<svg width="22" height="22" viewBox="0 0 22 22" fill="none" xmlns="http://www.w3.org/2000/svg">
<path d="M17.8178 3.7092L5.13917 9.7966L1.13517 8.5074C0.569768 8.778 0.222168 8.9474 0.222168 8.9474C0.222168 8.9474 2.11857 11.2222 3.65197 12.4674C4.39777 13.0724 8.61297 11.9856 10.4852 11.088L20.2092 6.4196C21.3488 5.8718 21.9934 4.7806 21.7184 4.2108C21.3026 3.3418 18.9442 3.168 17.8178 3.7092Z" fill="white"/>
<path d="M12.87 17.4218C12.8172 17.5714 12.6566 17.7518 12.5136 17.82L10.9472 18.5724C10.8042 18.6406 10.6986 18.568 10.7162 18.4096L11.5742 10.1926C11.5896 10.0342 11.7216 9.84722 11.8646 9.77902L16.0424 7.77262C16.1854 7.70442 16.2602 7.77042 16.2074 7.92002L12.87 17.4218Z" fill="white"/>
<path d="M4.93242 5.02923L8.37542 7.24243L11.759 5.61883L7.05322 3.96663C6.90362 3.91383 6.66162 3.92703 6.51862 3.99523L4.95002 4.74763C4.80702 4.81583 4.79822 4.94343 4.93242 5.02923Z" fill="white"/>
</svg>
