<svg width="32" height="32" viewBox="0 0 32 32" fill="none" xmlns="http://www.w3.org/2000/svg">
<path d="M12.8473 5.83391L13.8438 5.91695L13.8438 5.91695L12.8473 5.83391ZM12.6961 7.64758L13.0695 8.57526L13.6415 8.34505L13.6927 7.73063L12.6961 7.64758ZM10.4346 8.97L10.0083 9.87456L10.5726 10.1405L11.0596 9.75069L10.4346 8.97ZM8.77241 8.18653L8.34605 9.09108L8.34605 9.09108L8.77241 8.18653ZM6.18765 8.99564L5.32162 8.49564L5.32162 8.49564L6.18765 8.99564ZM5.02792 11.0044L5.89394 11.5044L5.89394 11.5044L5.02792 11.0044ZM5.61958 13.6474L6.18977 12.8259L6.18977 12.8259L5.61958 13.6474ZM7.14683 14.7074L8.13665 14.8498L8.22461 14.2382L7.71703 13.8859L7.14683 14.7074ZM7.14683 17.2926L7.71703 18.1141L8.22461 17.7618L8.13665 17.1502L7.14683 17.2926ZM5.61958 18.3526L5.04939 17.5311L5.04939 17.5311L5.61958 18.3526ZM5.02792 20.9956L5.89394 20.4956L5.89394 20.4956L5.02792 20.9956ZM6.18765 23.0044L5.32162 23.5044L5.32162 23.5044L6.18765 23.0044ZM8.77241 23.8135L8.34605 22.9089L8.34605 22.9089L8.77241 23.8135ZM10.4346 23.03L11.0596 22.2493L10.5726 21.8595L10.0083 22.1254L10.4346 23.03ZM12.6961 24.3524L13.6927 24.2694L13.6415 23.655L13.0695 23.4247L12.6961 24.3524ZM19.1529 26.1661L18.1564 26.083L18.1564 26.083L19.1529 26.1661ZM19.3003 24.397L18.9396 23.4643L18.3558 23.6901L18.3038 24.3139L19.3003 24.397ZM21.6341 23.0623L22.0605 22.1578L21.4998 21.8935L21.0137 22.2781L21.6341 23.0623ZM23.2278 23.8135L22.8014 24.718L22.8014 24.718L23.2278 23.8135ZM25.8125 23.0044L24.9465 22.5044L24.9465 22.5044L25.8125 23.0044ZM26.9723 20.9956L27.8383 21.4956L27.8383 21.4956L26.9723 20.9956ZM26.3806 18.3526L26.9508 17.5311L26.9508 17.5311L26.3806 18.3526ZM24.9524 17.3614L23.9637 17.2113L23.8702 17.8275L24.3822 18.1829L24.9524 17.3614ZM24.9524 14.6386L24.3822 13.8171L23.8702 14.1725L23.9637 14.7887L24.9524 14.6386ZM26.3806 13.6474L26.9508 14.4689L26.9508 14.4689L26.3806 13.6474ZM26.9723 11.0044L27.8383 10.5044L27.8383 10.5044L26.9723 11.0044ZM25.8125 8.99564L24.9465 9.49564L24.9465 9.49564L25.8125 8.99564ZM23.2278 8.18653L23.6541 9.09108L23.6541 9.09108L23.2278 8.18653ZM21.6341 8.93767L21.0137 9.72193L21.4998 10.1065L22.0605 9.84223L21.6341 8.93767ZM19.3003 7.60301L18.3038 7.68605L18.3558 8.30986L18.9396 8.53567L19.3003 7.60301ZM19.1529 5.83391L20.1495 5.75086L20.1495 5.75086L19.1529 5.83391ZM13.8438 5.91695C13.887 5.39866 14.3203 5 14.8404 5V3C13.2801 3 11.9803 4.19599 11.8507 5.75086L13.8438 5.91695ZM13.6927 7.73063L13.8438 5.91695L11.8507 5.75086L11.6996 7.56453L13.6927 7.73063ZM11.0596 9.75069C11.6645 9.26648 12.3407 8.8686 13.0695 8.57526L12.3227 6.7199C11.4103 7.08717 10.5649 7.58478 9.80972 8.18932L11.0596 9.75069ZM8.34605 9.09108L10.0083 9.87456L10.861 8.06545L9.19876 7.28197L8.34605 9.09108ZM7.05367 9.49564C7.31372 9.04523 7.8756 8.86934 8.34605 9.09108L9.19876 7.28197C7.78741 6.61675 6.10176 7.14441 5.32162 8.49564L7.05367 9.49564ZM5.89394 11.5044L7.05367 9.49564L5.32162 8.49564L4.16189 10.5044L5.89394 11.5044ZM6.18977 12.8259C5.76252 12.5293 5.6339 11.9548 5.89394 11.5044L4.16189 10.5044C3.38176 11.8556 3.76761 13.5792 5.04939 14.4689L6.18977 12.8259ZM7.71703 13.8859L6.18977 12.8259L5.04939 14.4689L6.57664 15.5289L7.71703 13.8859ZM8.0547 16C8.0547 15.6089 8.0827 15.2249 8.13665 14.8498L6.15702 14.5651C6.08955 15.0342 6.0547 15.5133 6.0547 16H8.0547ZM8.13665 17.1502C8.0827 16.7751 8.0547 16.3911 8.0547 16H6.0547C6.0547 16.4867 6.08955 16.9658 6.15702 17.4349L8.13665 17.1502ZM6.18977 19.1741L7.71703 18.1141L6.57664 16.4711L5.04939 17.5311L6.18977 19.1741ZM5.89394 20.4956C5.6339 20.0452 5.76251 19.4707 6.18977 19.1741L5.04939 17.5311C3.76761 18.4208 3.38176 20.1444 4.16189 21.4956L5.89394 20.4956ZM7.05367 22.5044L5.89394 20.4956L4.16189 21.4956L5.32162 23.5044L7.05367 22.5044ZM8.34605 22.9089C7.8756 23.1307 7.31372 22.9548 7.05367 22.5044L5.32162 23.5044C6.10176 24.8556 7.78741 25.3833 9.19876 24.718L8.34605 22.9089ZM10.0083 22.1254L8.34605 22.9089L9.19876 24.718L10.861 23.9346L10.0083 22.1254ZM13.0695 23.4247C12.3407 23.1314 11.6645 22.7335 11.0596 22.2493L9.80972 23.8107C10.5649 24.4152 11.4103 24.9128 12.3227 25.2801L13.0695 23.4247ZM13.8438 26.083L13.6927 24.2694L11.6996 24.4355L11.8507 26.2491L13.8438 26.083ZM14.8404 27C14.3203 27 13.887 26.6013 13.8438 26.083L11.8507 26.2491C11.9803 27.804 13.2801 29 14.8404 29V27ZM17.1598 27H14.8404V29H17.1598V27ZM18.1564 26.083C18.1132 26.6013 17.6799 27 17.1598 27V29C18.7201 29 20.0199 27.804 20.1495 26.2491L18.1564 26.083ZM18.3038 24.3139L18.1564 26.083L20.1495 26.2491L20.2969 24.48L18.3038 24.3139ZM21.0137 22.2781C20.3903 22.7713 19.6922 23.1732 18.9396 23.4643L19.6611 25.3297C20.6034 24.9652 21.4762 24.4624 22.2546 23.8466L21.0137 22.2781ZM23.6541 22.9089L22.0605 22.1578L21.2078 23.9669L22.8014 24.718L23.6541 22.9089ZM24.9465 22.5044C24.6865 22.9548 24.1246 23.1307 23.6541 22.9089L22.8014 24.718C24.2128 25.3833 25.8984 24.8556 26.6786 23.5044L24.9465 22.5044ZM26.1062 20.4956L24.9465 22.5044L26.6786 23.5044L27.8383 21.4956L26.1062 20.4956ZM25.8104 19.1741C26.2377 19.4707 26.3663 20.0452 26.1062 20.4956L27.8383 21.4956C28.6184 20.1444 28.2326 18.4208 26.9508 17.5311L25.8104 19.1741ZM24.3822 18.1829L25.8104 19.1741L26.9508 17.5311L25.5226 16.5398L24.3822 18.1829ZM24.0547 16C24.0547 16.4124 24.0236 16.8169 23.9637 17.2113L25.9411 17.5114C26.016 17.0179 26.0547 16.5132 26.0547 16H24.0547ZM23.9637 14.7887C24.0236 15.1831 24.0547 15.5876 24.0547 16H26.0547C26.0547 15.4868 26.016 14.9821 25.9411 14.4886L23.9637 14.7887ZM25.8104 12.8259L24.3822 13.8171L25.5226 15.4602L26.9508 14.4689L25.8104 12.8259ZM26.1062 11.5044C26.3663 11.9548 26.2377 12.5293 25.8104 12.8259L26.9508 14.4689C28.2326 13.5792 28.6184 11.8556 27.8383 10.5044L26.1062 11.5044ZM24.9465 9.49564L26.1062 11.5044L27.8383 10.5044L26.6786 8.49564L24.9465 9.49564ZM23.6541 9.09108C24.1246 8.86934 24.6865 9.04523 24.9465 9.49564L26.6786 8.49564C25.8984 7.14441 24.2128 6.61675 22.8014 7.28197L23.6541 9.09108ZM22.0605 9.84223L23.6541 9.09108L22.8014 7.28197L21.2078 8.03311L22.0605 9.84223ZM18.9396 8.53567C19.6922 8.82676 20.3903 9.22872 21.0137 9.72193L22.2546 8.15341C21.4762 7.53761 20.6034 7.03482 19.6611 6.67034L18.9396 8.53567ZM18.1564 5.91695L18.3038 7.68605L20.2969 7.51996L20.1495 5.75086L18.1564 5.91695ZM17.1598 5C17.6799 5 18.1132 5.39866 18.1564 5.91695L20.1495 5.75086C20.0199 4.19599 18.7201 3 17.1598 3V5ZM14.8404 5H17.1598V3H14.8404V5Z" fill="white"/>
<circle cx="16.0547" cy="16" r="4" stroke="white" stroke-width="2"/>
</svg>
